<?xml version="1.0" encoding="UTF-8"?>
<svg id="Layer_1" data-name="Layer 1" xmlns="http://www.w3.org/2000/svg" viewBox="0 0 1080 1080">
  <defs>
    <style>
      .cls-1 {
        fill: #bf1e2e;
      }

      .cls-2 {
        fill: #747fc2;
      }

      .cls-3 {
        fill: #0f2296;
      }
    </style>
  </defs>
  <path class="cls-3" d="m648.56,737.51c1.38,25.3-.21,50.61-1.55,75.8-1.91,35.97-4.5,71.97-10.09,107.63-.73,4.63-2.63,8.21-8.18,10.58-36.24,15.47-71.81,32.54-109.66,44.02-26.19,7.94-53.05,12.32-80.08,16.32-46.93,6.94-94.11,6.69-141.25,5.72-39.18-.81-78.22-4.72-113.88-23.14-50.64-26.17-85.66-66.28-107.78-118.94-12.89-30.68-20.61-62.43-25.78-94.82-5.96-37.33-6.17-75.28-4.05-112.9,2.39-42.31,10.09-83.97,24.17-124.21,15.86-45.3,38.23-86.81,69.26-123.76,31.83-37.9,69.41-68.22,114.26-88.93,37.09-17.14,75.97-29.47,116.05-37.59,21.67-4.39,43.51-7.24,65.7-8.79,24.45-1.7,48.07-.02,71.39,6.71,26.88,7.76,50.94,20.79,72.01,39.41,24.96,22.07,41.8,49.09,52.35,80.64,4.39,13.11,5.47,27.29,7.1,40.49,2.11,17.12,3.89,29.14,1.94,50.51-1.94,20.4-8.41,38.34-15.19,56.49-12.48,33.4-32.25,61.71-58.89,85.16-20.46,18.01-44.68,30.07-69.26,41.23-20.83,9.45-42.5,16.85-64.66,22.36-25.51,6.34-51.34,11.13-77.42,14.96-43.2,6.35-86.56,5.99-129.97,5.93-3.15,0-5.81-.91-7.15,4.35-12.09,47.35-14.34,93.44,14.3,136.5,17.34,26.07,43.21,39,71.92,48.05,18.95,5.98,38.75,9.44,58.06,9.4,26.52-.04,53.2-.21,79.82-4.82,42.1-7.29,79.95-23.63,113.84-48.6,29.88-22.02,54.03-49.92,72.58-82.29,6.49-11.32,12.28-23.04,18.38-34.58.57.36,1.15.72,1.72,1.09Zm-352.85-125.71c29.53.75,56.11-2.34,82.58-7.97,37.13-7.89,67.59-27.97,94.44-53.06,21.35-19.95,28.77-47.01,26.62-76.03-1.18-15.94-6.17-29.94-21.05-39.71-26.83-17.62-55.55-20.78-86.46-16.26-41.86,6.12-73.85,28.45-98.94,60.69-27.24,35-44.01,75.21-54.71,118.34-2.87,11.55,3.08,11.65,9.21,11.81,16.95.44,33.76,4.23,48.3,2.19Z"/>
  <path class="cls-1" d="m1034.68,22.71c-11.72,48.04-23.16,95.41-34.84,142.73-16.07,65.05-32.37,130.05-48.49,195.09-16.19,65.29-32.33,130.6-48.41,195.92-14.09,57.27-28.02,114.58-42.11,171.85-10.19,41.43-20.56,82.81-30.75,124.24-1.6,6.52-2.34,10.06-11.98,8.22-43.92-8.38-88.05-15.73-131.84-24.85-13.26-2.76-12.6-2.68-10.41-16.4,4.59-28.78,8.19-57.71,12.62-86.52,3.66-23.76,8.09-47.4,11.88-71.14,3.74-23.45,6.91-47,10.7-70.45,3.2-19.8,5.94-39.66,9.56-59.42,4.52-24.67,7.15-49.69,10.93-74.5,3.67-24.13,7.84-48.19,11.65-72.3,3.08-19.49,5.85-39.03,8.91-58.52,3.83-24.4,7.95-48.76,11.69-73.18,3.1-20.19,5.72-40.46,8.79-60.65,2.91-19.16,6.2-38.27,9.18-57.43,3.18-20.48,6.15-40.99,9.27-61.48,2.92-19.18,6.9-38.19,8.54-57.59.42-4.95,4.89-7.74,9.75-5.61,5.67,2.48,11.35,1.71,17.03,1.72,31.93.05,63.69,3.47,95.58,4.55,24.67.83,49.38,2.38,74.03,3.95,12.5.8,24.98,1.79,38.73,1.77Z"/>
  <path class="cls-1" d="m719.23,889.02c52.34-3.49,87.9,41.84,90.6,80.03,4.54,64.23-46.59,101.02-91.09,99.81-50.48-1.37-87.82-38-89.41-90.27-1.43-47.21,39.94-94.19,89.89-89.57Z"/>
  <path class="cls-2" d="m648.56,737.51c-.57-.36-1.15-.72-1.72-1.09.05-1.28.4-2.32,1.97-2.3-.08,1.13-.16,2.25-.25,3.38Z"/>
</svg>