<?xml version="1.0" standalone="no"?>
<!DOCTYPE svg PUBLIC "-//W3C//DTD SVG 20010904//EN"
 "http://www.w3.org/TR/2001/REC-SVG-20010904/DTD/svg10.dtd">
<svg version="1.0" xmlns="http://www.w3.org/2000/svg"
 width="1100.000000pt" height="450.000000pt" viewBox="0 0 1100.000000 450.000000"
 preserveAspectRatio="xMidYMid meet">

<g transform="translate(0.000000,450.000000) scale(0.100000,-0.100000)"
fill="#000000" stroke="none">
<path d="M6640 4270 c0 -5 -21 -10 -47 -10 -111 0 -213 -13 -213 -26 0 -8 9
-14 20 -14 13 0 20 -7 20 -20 0 -16 7 -20 35 -20 28 0 35 -4 35 -20 0 -11 7
-20 15 -20 8 0 15 -7 15 -15 0 -8 9 -15 20 -15 13 0 20 -7 20 -20 0 -11 7 -20
15 -20 8 0 17 -14 21 -35 3 -20 12 -35 20 -35 11 0 14 -17 14 -70 0 -56 -3
-70 -15 -70 -11 0 -15 -11 -15 -43 0 -101 -13 -197 -26 -197 -11 0 -14 -21
-14 -90 0 -73 -3 -90 -15 -90 -10 0 -15 -10 -15 -32 0 -72 -13 -138 -26 -138
-11 0 -14 -18 -14 -75 0 -57 -3 -75 -14 -75 -13 0 -26 -66 -26 -137 0 -23 -5
-33 -15 -33 -12 0 -15 -14 -15 -70 0 -52 -4 -72 -14 -76 -10 -4 -17 -29 -22
-75 -5 -48 -11 -69 -20 -69 -11 0 -14 -17 -14 -70 0 -53 -3 -70 -14 -70 -16 0
-26 -43 -26 -116 0 -39 -4 -54 -14 -54 -10 0 -15 -19 -18 -71 -2 -44 -9 -73
-17 -79 -8 -4 -16 -31 -19 -59 -3 -34 -9 -51 -18 -51 -9 0 -14 -11 -14 -27 0
-43 -11 -73 -26 -73 -9 0 -14 -12 -14 -35 0 -24 -5 -35 -15 -35 -8 0 -15 -7
-15 -16 0 -9 -9 -18 -20 -21 -11 -3 -20 -14 -20 -24 0 -11 -7 -19 -15 -19 -8
0 -15 -7 -15 -15 0 -8 -9 -15 -20 -15 -11 0 -20 -7 -20 -15 0 -8 -9 -15 -20
-15 -13 0 -20 -7 -20 -20 0 -17 -7 -20 -50 -20 -35 0 -50 -4 -50 -14 0 -9 -24
-15 -87 -20 -51 -4 -90 -11 -95 -19 -10 -17 -226 -17 -237 1 -4 7 -31 15 -59
19 -34 4 -52 10 -52 19 0 9 -12 14 -34 14 -25 0 -35 5 -39 20 -4 15 -14 20
-36 20 -24 0 -31 4 -31 20 0 11 -7 20 -15 20 -9 0 -18 12 -21 30 -4 17 -12 30
-19 30 -8 0 -16 18 -20 40 -4 25 -12 40 -21 40 -11 0 -14 23 -14 119 l0 118
156 5 c115 4 159 9 165 19 5 9 39 15 108 17 77 3 101 8 101 18 0 10 14 14 48
14 61 0 92 9 92 26 0 10 13 14 40 14 29 0 40 4 40 15 0 10 10 15 30 15 18 0
33 6 36 15 3 8 21 17 40 21 19 3 34 12 34 19 0 8 14 16 30 20 17 4 30 13 30
21 0 8 9 14 20 14 13 0 20 7 20 20 0 11 6 20 14 20 8 0 17 14 21 30 4 17 13
30 21 30 8 0 14 9 14 20 0 11 6 20 14 20 9 0 17 15 21 40 4 23 12 40 20 40 8
0 14 20 17 61 3 36 10 64 18 69 21 13 17 200 -4 212 -11 6 -16 24 -16 58 0 36
-4 50 -14 50 -8 0 -17 15 -20 35 -4 21 -13 35 -21 35 -8 0 -15 9 -15 20 0 11
-7 20 -15 20 -8 0 -15 7 -15 16 0 9 -9 18 -20 21 -11 3 -20 12 -20 19 0 8 -7
14 -15 14 -8 0 -15 7 -15 15 0 8 -9 15 -20 15 -13 0 -20 7 -20 20 0 16 -7 20
-35 20 -23 0 -35 5 -35 14 0 20 -158 30 -326 21 -104 -6 -134 -11 -134 -21 0
-11 -17 -14 -70 -14 -53 0 -70 -3 -70 -14 0 -15 -30 -26 -72 -26 -17 0 -28 -5
-28 -14 0 -8 -16 -16 -40 -20 -26 -4 -40 -11 -40 -21 0 -10 -11 -15 -35 -15
-24 0 -35 -5 -35 -15 0 -8 -7 -15 -16 -15 -9 0 -18 -9 -21 -20 -4 -14 -14 -20
-34 -20 -20 0 -29 -5 -29 -16 0 -9 -9 -18 -20 -21 -11 -3 -20 -12 -20 -19 0
-8 -7 -14 -15 -14 -8 0 -15 -7 -15 -16 0 -9 -9 -18 -19 -21 -12 -3 -23 -17
-26 -33 -3 -16 -13 -31 -21 -34 -8 -3 -14 -12 -14 -21 0 -8 -7 -15 -15 -15 -8
0 -15 -9 -15 -20 0 -11 -7 -20 -15 -20 -8 0 -17 -14 -21 -35 -3 -20 -12 -35
-20 -35 -9 0 -14 -12 -14 -35 0 -23 -5 -35 -14 -35 -15 0 -26 -30 -26 -72 0
-18 -5 -28 -15 -28 -11 0 -15 -12 -15 -47 0 -62 -9 -93 -26 -93 -12 0 -14 -49
-14 -285 0 -236 2 -285 14 -285 17 0 26 -31 26 -92 0 -36 4 -48 15 -48 10 0
15 -10 15 -34 0 -25 5 -35 20 -39 15 -4 20 -14 20 -36 0 -21 5 -31 15 -31 8 0
15 -9 15 -20 0 -11 7 -20 15 -20 8 0 17 -14 21 -35 4 -25 11 -35 25 -35 11 0
19 -7 19 -15 0 -8 7 -15 15 -15 8 0 15 -7 15 -15 0 -8 14 -17 35 -21 19 -3 35
-12 35 -20 0 -7 16 -16 35 -20 20 -3 35 -12 35 -20 0 -10 13 -14 40 -14 27 0
40 -4 40 -13 0 -11 66 -15 338 -20 506 -10 1200 -9 1207 3 9 15 -6 60 -21 60
-8 0 -14 9 -14 20 0 11 -6 20 -14 20 -13 0 -26 41 -26 86 0 15 -6 24 -15 24
-12 0 -15 18 -15 105 0 87 3 105 15 105 11 0 15 13 15 53 0 90 12 157 26 157
11 0 14 20 14 85 0 64 4 87 14 91 8 3 16 27 20 55 5 33 11 49 21 49 8 0 15 -7
15 -15 0 -8 9 -15 20 -15 13 0 20 -7 20 -20 0 -11 7 -20 15 -20 10 0 15 -11
15 -35 0 -28 4 -35 20 -35 16 0 20 -7 20 -35 0 -24 5 -35 14 -35 8 0 17 -13
21 -30 4 -17 13 -30 21 -30 8 0 14 -10 14 -25 0 -15 6 -25 14 -25 8 0 17 -14
21 -30 4 -16 13 -30 21 -30 9 0 14 -11 14 -34 0 -25 5 -35 20 -39 11 -3 20
-12 20 -21 0 -9 7 -16 15 -16 10 0 15 -11 15 -35 0 -28 4 -35 20 -35 13 0 20
-7 20 -20 0 -11 7 -20 15 -20 10 0 15 -10 15 -30 0 -21 5 -30 16 -30 9 0 18
-9 21 -20 3 -11 12 -20 19 -20 8 0 14 -9 14 -20 0 -11 6 -20 14 -20 8 0 17
-14 21 -30 4 -17 13 -30 21 -30 8 0 14 -9 14 -20 0 -12 7 -20 16 -20 9 0 18
-9 21 -20 3 -11 11 -20 18 -20 7 0 15 -9 18 -20 3 -11 12 -20 21 -20 9 0 16
-7 16 -15 0 -8 6 -15 14 -15 7 0 16 -9 19 -20 3 -11 12 -20 21 -20 9 0 16 -7
16 -15 0 -10 11 -15 35 -15 24 0 35 -5 35 -15 0 -24 62 -28 299 -21 161 5 227
10 233 19 5 8 45 13 123 15 91 3 115 7 115 18 0 10 -14 14 -54 14 -73 0 -116
10 -116 26 0 11 -17 14 -70 14 -56 0 -70 3 -70 15 0 8 -7 15 -16 15 -9 0 -18
9 -21 20 -3 11 -14 20 -24 20 -11 0 -19 7 -19 15 0 8 -7 15 -15 15 -8 0 -15 9
-15 20 0 11 -6 20 -14 20 -7 0 -16 9 -19 20 -3 11 -12 20 -21 20 -9 0 -16 7
-16 15 0 8 -6 15 -14 15 -8 0 -17 15 -20 35 -4 21 -13 35 -21 35 -8 0 -15 9
-15 20 0 11 -6 20 -14 20 -8 0 -17 13 -21 30 -4 16 -13 30 -21 30 -8 0 -14 9
-14 20 0 11 -7 20 -15 20 -8 0 -15 7 -15 16 0 9 -9 18 -20 21 -15 4 -20 14
-20 39 0 24 -5 34 -15 34 -8 0 -15 7 -15 16 0 9 -9 18 -20 21 -14 4 -20 14
-20 35 0 21 -6 31 -20 35 -11 3 -20 14 -20 24 0 11 -7 19 -15 19 -10 0 -15 10
-15 30 0 23 -4 30 -20 30 -16 0 -20 7 -20 35 0 24 -5 35 -15 35 -8 0 -15 7
-15 16 0 9 -9 18 -20 21 -15 4 -20 14 -20 39 0 24 -5 34 -15 34 -8 0 -15 7
-15 16 0 9 -9 18 -20 21 -14 4 -20 14 -20 34 0 19 -5 29 -15 29 -8 0 -15 9
-15 20 0 13 -7 20 -20 20 -11 0 -20 7 -20 15 0 8 7 15 15 15 8 0 15 9 15 20 0
13 7 20 20 20 13 0 20 7 20 20 0 13 7 20 20 20 11 0 20 7 20 15 0 8 6 15 14
15 7 0 16 9 19 20 3 11 12 20 21 20 9 0 16 7 16 15 0 8 6 15 13 15 7 0 20 9
30 20 9 11 25 20 36 20 10 0 21 9 24 20 3 11 12 20 21 20 9 0 16 7 16 15 0 8
7 15 15 15 8 0 15 7 15 15 0 8 9 15 20 15 13 0 20 7 20 20 0 13 7 20 20 20 11
0 20 7 20 15 0 8 7 15 15 15 8 0 15 9 15 20 0 13 7 20 20 20 11 0 20 6 20 14
0 8 14 17 30 21 17 4 30 13 30 21 0 8 9 14 20 14 13 0 20 7 20 20 0 13 7 20
20 20 11 0 20 7 20 15 0 8 6 15 14 15 7 0 16 9 19 20 3 11 12 20 21 20 9 0 16
7 16 15 0 8 7 15 15 15 10 0 15 11 15 35 0 24 -5 35 -15 35 -8 0 -15 9 -15 20
0 13 -7 20 -20 20 -16 0 -20 7 -20 30 0 20 -5 30 -15 30 -8 0 -15 8 -15 19 0
10 -9 21 -20 24 -11 3 -20 12 -20 21 0 9 -6 16 -14 16 -8 0 -17 15 -20 35 -6
32 -10 35 -41 35 -24 0 -35 -5 -35 -14 0 -8 -13 -17 -29 -21 -17 -3 -31 -14
-34 -26 -3 -10 -12 -19 -21 -19 -9 0 -16 -7 -16 -15 0 -8 -7 -15 -15 -15 -8 0
-15 -7 -15 -15 0 -8 -9 -15 -20 -15 -13 0 -20 -7 -20 -20 0 -13 -7 -20 -20
-20 -11 0 -20 -7 -20 -15 0 -8 -7 -15 -15 -15 -8 0 -15 -9 -15 -20 0 -13 -7
-20 -20 -20 -11 0 -20 -7 -20 -15 0 -8 -7 -15 -15 -15 -8 0 -15 -9 -15 -20 0
-13 -7 -20 -20 -20 -11 0 -20 -7 -20 -15 0 -8 -6 -15 -13 -15 -7 0 -20 -9 -30
-20 -9 -11 -26 -20 -37 -20 -13 0 -20 -7 -20 -20 0 -13 -7 -20 -20 -20 -11 0
-20 -7 -20 -15 0 -8 -6 -15 -14 -15 -7 0 -16 -9 -19 -20 -3 -11 -12 -20 -21
-20 -9 0 -16 -7 -16 -15 0 -8 -6 -15 -14 -15 -7 0 -16 -9 -19 -20 -3 -11 -12
-20 -21 -20 -9 0 -16 -7 -16 -15 0 -8 -9 -15 -20 -15 -11 0 -20 -7 -20 -15 0
-8 -7 -15 -15 -15 -8 0 -15 -9 -15 -20 0 -13 -7 -20 -20 -20 -11 0 -20 -6 -20
-14 0 -8 -13 -17 -29 -21 -17 -3 -31 -14 -34 -26 -3 -10 -12 -19 -21 -19 -9 0
-16 -7 -16 -15 0 -9 -9 -15 -21 -15 -20 0 -21 4 -17 51 3 28 11 55 19 60 9 5
15 34 17 89 3 60 8 80 18 80 11 0 14 17 14 71 0 62 2 71 20 76 17 5 20 14 20
69 0 50 3 64 15 64 10 0 15 10 15 29 0 49 12 91 26 91 11 0 14 17 14 65 0 48
4 65 14 65 9 0 15 21 20 70 5 51 11 70 22 70 11 0 14 16 14 75 0 57 3 75 14
75 10 0 15 24 20 90 6 68 11 90 22 90 11 0 14 16 14 70 0 55 -3 70 -15 70 -8
0 -17 14 -21 35 -3 20 -12 35 -20 35 -9 0 -14 11 -14 30 0 25 -4 30 -35 36
-19 3 -35 12 -35 19 0 8 -32 14 -107 19 -60 3 -109 11 -111 16 -5 13 -92 13
-92 0z m-860 -1235 c0 -8 9 -15 20 -15 13 0 20 -7 20 -20 0 -13 7 -20 20 -20
11 0 20 -6 20 -14 0 -8 7 -16 15 -20 21 -8 22 -146 1 -146 -8 0 -17 -15 -20
-35 -4 -21 -13 -35 -21 -35 -8 0 -15 -9 -15 -20 0 -11 -7 -20 -15 -20 -8 0
-15 -7 -15 -15 0 -8 -9 -15 -20 -15 -11 0 -20 -7 -20 -15 0 -8 -7 -15 -16 -15
-9 0 -18 -9 -21 -20 -4 -15 -14 -20 -39 -20 -23 0 -34 -5 -34 -15 0 -10 -16
-16 -50 -21 -32 -4 -50 -11 -50 -20 0 -11 -36 -14 -195 -14 l-195 0 0 35 c0
24 5 35 15 35 11 0 15 11 15 40 0 28 6 45 20 57 12 11 20 30 20 50 0 22 5 33
14 33 8 0 17 15 20 35 4 21 13 35 21 35 8 0 15 7 15 15 0 8 7 15 15 15 8 0 15
9 15 20 0 13 7 20 20 20 13 0 20 7 20 20 0 11 7 20 15 20 8 0 15 7 15 15 0 8
9 15 20 15 11 0 20 7 20 15 0 8 14 17 35 21 20 3 35 12 35 20 0 11 27 14 140
14 118 0 140 -2 140 -15z"/>
<path d="M10308 4190 c-4 -46 -11 -75 -19 -81 -10 -6 -15 -39 -17 -124 -3 -86
-7 -115 -17 -115 -9 0 -14 -28 -17 -106 -3 -79 -7 -107 -18 -114 -11 -7 -16
-35 -18 -110 -3 -78 -7 -100 -18 -100 -11 0 -14 -17 -14 -72 0 -109 -10 -178
-26 -178 -11 0 -14 -23 -14 -105 0 -87 -3 -105 -15 -105 -12 0 -15 -14 -15
-64 0 -106 -11 -186 -26 -186 -11 0 -14 -23 -14 -105 0 -82 -3 -105 -14 -105
-13 0 -26 -101 -26 -207 0 -32 -4 -43 -15 -43 -12 0 -15 -18 -15 -105 0 -87
-3 -105 -15 -105 -8 0 -15 -7 -15 -15 0 -10 10 -15 28 -15 42 0 72 -11 72 -26
0 -11 22 -14 105 -14 87 0 105 -3 105 -15 0 -12 13 -15 55 -15 54 0 55 0 55
30 0 20 5 30 15 30 11 0 15 13 15 53 0 66 9 97 26 97 11 0 14 17 14 70 0 56 3
70 15 70 11 0 15 12 15 48 0 61 9 92 26 92 11 0 14 17 14 70 0 56 3 70 15 70
11 0 15 12 15 48 0 61 9 92 26 92 11 0 14 17 14 70 0 56 3 70 15 70 11 0 15
12 15 44 0 63 11 106 26 106 11 0 14 17 14 70 0 56 3 70 15 70 11 0 15 11 15
39 0 59 11 101 26 101 11 0 14 17 14 70 0 53 3 70 14 70 10 0 16 20 21 70 5
50 11 70 21 70 11 0 14 17 14 70 0 54 4 71 17 78 12 7 18 27 21 76 3 48 8 66
18 66 11 0 14 17 14 70 0 53 3 70 14 70 17 0 26 31 26 93 0 35 4 47 15 47 11
0 15 12 15 50 l0 50 -238 0 c-132 0 -273 3 -314 6 l-75 7 -5 -73z"/>
<path d="M9393 3403 c-29 -3 -43 -9 -43 -19 0 -8 -9 -14 -20 -14 -11 0 -28 -9
-37 -20 -10 -11 -23 -20 -30 -20 -7 0 -13 -7 -13 -15 0 -11 -11 -15 -40 -15
-29 0 -40 4 -40 15 0 11 -12 15 -50 15 -36 0 -50 4 -50 14 0 17 -31 26 -92 26
-36 0 -48 4 -48 15 0 12 -19 15 -110 15 -87 0 -110 -3 -110 -14 0 -10 -20 -15
-80 -18 -54 -2 -84 -8 -89 -17 -5 -7 -29 -16 -55 -18 -27 -4 -46 -11 -46 -18
0 -7 -15 -16 -34 -19 -19 -4 -37 -13 -40 -21 -3 -8 -15 -15 -26 -15 -11 0 -20
-6 -20 -14 0 -8 -13 -17 -30 -21 -16 -4 -30 -13 -30 -21 0 -8 -9 -14 -20 -14
-13 0 -20 -7 -20 -20 0 -11 -7 -20 -15 -20 -8 0 -15 -7 -15 -15 0 -8 -9 -15
-20 -15 -13 0 -20 -7 -20 -20 0 -11 -6 -20 -14 -20 -8 0 -17 -13 -21 -30 -4
-16 -13 -30 -21 -30 -8 0 -14 -9 -14 -20 0 -11 -6 -20 -14 -20 -8 0 -17 -15
-20 -35 -4 -21 -13 -35 -21 -35 -8 0 -15 -9 -15 -20 0 -11 -7 -20 -15 -20 -8
0 -17 -14 -21 -35 -3 -19 -12 -35 -19 -35 -7 0 -14 -19 -18 -47 -3 -27 -11
-50 -21 -55 -10 -6 -16 -22 -16 -43 0 -23 -5 -35 -14 -35 -10 0 -15 -18 -18
-61 -3 -38 -10 -64 -19 -69 -11 -7 -15 -40 -18 -135 -2 -99 -6 -125 -17 -125
-11 0 -14 -22 -14 -105 0 -87 3 -105 15 -105 12 0 15 -16 15 -85 0 -68 3 -85
15 -85 8 0 17 -14 21 -35 3 -19 12 -35 19 -35 7 0 16 -16 19 -35 4 -21 13 -35
21 -35 8 0 15 -9 15 -20 0 -11 6 -20 14 -20 7 0 16 -9 19 -20 3 -11 12 -20 21
-20 9 0 16 -7 16 -15 0 -8 7 -15 15 -15 8 0 15 -7 15 -16 0 -9 9 -18 20 -21
11 -3 20 -12 20 -19 0 -8 9 -14 20 -14 11 0 20 -7 20 -15 0 -8 14 -17 35 -21
20 -3 35 -12 35 -20 0 -9 12 -14 35 -14 23 0 35 -5 35 -14 0 -10 20 -16 70
-21 50 -5 70 -11 70 -21 0 -11 17 -14 70 -14 53 0 70 3 70 14 0 10 24 15 90
20 68 6 90 11 90 22 0 10 13 14 50 14 36 0 50 4 50 14 0 7 9 16 20 19 11 3 20
12 20 21 0 9 8 16 20 16 11 0 20 7 20 15 0 8 7 15 15 15 8 0 15 9 15 20 0 13
7 20 20 20 11 0 20 6 20 14 0 17 42 28 75 20 19 -5 25 -13 25 -34 0 -19 6 -29
20 -33 11 -3 20 -12 20 -21 0 -9 7 -16 15 -16 8 0 15 -9 15 -20 0 -13 7 -20
20 -20 11 0 20 -7 20 -15 0 -8 7 -15 15 -15 8 0 15 -6 15 -13 0 -11 27 -16
108 -20 149 -9 312 2 312 20 0 7 9 13 20 13 13 0 20 7 20 20 0 11 6 20 14 20
15 0 26 30 26 73 0 17 5 27 15 27 12 0 15 14 15 70 l0 69 -35 7 c-20 3 -35 12
-35 20 0 10 -14 14 -50 14 -38 0 -50 4 -50 15 0 8 -9 15 -20 15 -13 0 -20 7
-20 20 0 11 -6 20 -14 20 -15 0 -26 30 -26 73 0 17 -5 27 -15 27 -13 0 -15 28
-15 195 0 158 3 195 14 195 9 0 15 20 18 71 4 44 11 74 19 79 8 5 15 35 17 74
3 45 8 66 17 66 9 0 15 23 20 70 5 50 11 70 21 70 10 0 14 15 14 55 0 40 4 55
14 55 9 0 16 20 21 65 5 46 11 65 21 65 10 0 14 14 14 55 0 40 4 55 14 55 13
0 26 41 26 86 0 15 6 24 15 24 11 0 15 12 15 50 0 32 5 52 14 57 8 4 17 20 21
34 l6 26 -83 6 c-84 7 -228 7 -305 0z m-396 -403 c3 -11 14 -20 24 -20 11 0
19 -7 19 -15 0 -8 7 -15 15 -15 12 0 15 -13 15 -55 0 -42 3 -55 15 -55 12 0
15 -16 15 -85 0 -69 -3 -85 -15 -85 -12 0 -15 -17 -15 -95 0 -78 -3 -95 -15
-95 -11 0 -15 -11 -15 -39 0 -59 -11 -101 -26 -101 -10 0 -14 -14 -14 -50 0
-37 -4 -50 -15 -50 -10 0 -16 -16 -21 -50 -4 -30 -12 -50 -19 -50 -7 0 -15
-18 -19 -40 -4 -26 -11 -40 -21 -40 -8 0 -15 -9 -15 -20 0 -11 -7 -20 -15 -20
-10 0 -15 -10 -15 -31 0 -22 -5 -32 -20 -36 -14 -4 -20 -14 -20 -34 0 -19 -5
-29 -15 -29 -8 0 -15 -9 -15 -20 0 -13 -7 -20 -20 -20 -11 0 -20 -6 -20 -14 0
-7 -9 -16 -20 -19 -11 -3 -20 -12 -20 -21 0 -11 -9 -16 -31 -16 -22 0 -32 -5
-36 -20 -5 -17 -14 -20 -70 -20 -56 0 -66 3 -70 20 -4 14 -14 20 -34 20 -20 0
-29 5 -29 16 0 9 -9 18 -20 21 -15 4 -20 14 -20 39 0 23 -5 34 -15 34 -21 0
-27 50 -23 218 2 121 6 155 18 162 10 6 16 32 18 79 3 52 8 71 18 71 10 0 14
13 14 43 0 56 9 87 26 87 8 0 14 10 14 25 0 16 6 25 15 25 10 0 15 10 15 30 0
23 4 30 20 30 16 0 20 7 20 35 0 24 5 35 15 35 8 0 15 7 15 16 0 9 9 18 20 21
15 4 20 14 20 39 0 27 4 34 20 34 11 0 20 7 20 15 0 8 7 15 15 15 8 0 15 9 15
20 0 13 7 20 20 20 11 0 20 7 20 15 0 8 7 15 15 15 8 0 15 9 15 20 0 16 7 20
34 20 25 0 35 5 39 20 5 18 14 20 87 20 73 0 82 -2 87 -20z"/>
<path d="M1010 3385 c0 -12 -14 -15 -70 -15 -53 0 -70 -3 -70 -14 0 -16 -30
-26 -77 -26 -23 0 -33 -5 -33 -15 0 -10 -11 -15 -35 -15 -24 0 -35 -5 -35 -15
0 -8 -14 -17 -35 -21 -20 -3 -35 -12 -35 -20 0 -9 -11 -14 -31 -14 -22 0 -32
-5 -36 -20 -3 -11 -14 -20 -24 -20 -11 0 -19 -7 -19 -15 0 -8 -7 -15 -15 -15
-8 0 -15 -9 -15 -20 0 -13 -7 -20 -20 -20 -11 0 -20 -7 -20 -15 0 -8 -7 -15
-15 -15 -8 0 -15 -7 -15 -15 0 -8 -7 -15 -16 -15 -9 0 -18 -9 -21 -20 -3 -11
-12 -20 -19 -20 -8 0 -14 -9 -14 -20 0 -11 -7 -20 -15 -20 -8 0 -17 -14 -21
-35 -3 -20 -12 -35 -20 -35 -8 0 -14 -9 -14 -20 0 -11 -7 -20 -15 -20 -8 0
-17 -14 -21 -35 -3 -20 -12 -35 -20 -35 -10 0 -14 -14 -14 -50 0 -36 -4 -50
-14 -50 -17 0 -26 -31 -26 -92 0 -36 -4 -48 -15 -48 -15 0 -16 -9 -17 -300 -1
-254 2 -300 17 -300 12 0 15 -13 15 -55 0 -40 4 -55 14 -55 15 0 26 -30 26
-72 0 -18 5 -28 15 -28 8 0 15 -8 15 -18 0 -10 9 -25 20 -35 11 -9 20 -26 20
-37 0 -11 7 -20 15 -20 8 0 15 -9 15 -20 0 -13 7 -20 20 -20 11 0 20 -6 20
-14 0 -7 9 -16 20 -19 11 -3 20 -12 20 -21 0 -9 7 -16 15 -16 8 0 15 -6 15
-14 0 -8 15 -17 35 -20 21 -4 35 -13 35 -21 0 -10 11 -15 35 -15 23 0 35 -5
35 -14 0 -20 87 -26 354 -26 283 0 396 8 396 26 0 11 18 14 70 14 53 0 70 3
70 14 0 15 30 26 73 26 17 0 27 5 27 15 0 10 11 15 35 15 24 0 35 5 35 15 0
10 14 17 40 21 24 4 40 12 40 20 0 9 11 14 30 14 21 0 30 -5 30 -16 0 -9 9
-18 20 -21 11 -3 20 -12 20 -19 0 -8 7 -14 15 -14 8 0 15 -7 15 -16 0 -9 9
-18 20 -21 11 -3 20 -12 20 -19 0 -9 12 -14 35 -14 24 0 35 -5 35 -15 0 -13
22 -15 140 -15 118 0 140 2 140 15 0 12 14 15 70 15 53 0 70 3 70 14 0 8 15
17 35 20 21 4 35 13 35 21 0 8 9 15 20 15 13 0 20 7 20 20 0 13 7 20 20 20 11
0 20 6 20 14 0 8 14 17 30 21 17 4 30 13 30 21 0 8 9 14 20 14 11 0 20 6 20
14 0 7 9 16 20 19 11 3 20 12 20 21 0 33 28 15 35 -21 4 -21 12 -41 18 -45 6
-4 13 -36 15 -72 3 -46 8 -66 18 -66 7 0 14 -14 16 -32 l3 -33 150 -3 c83 -2
169 0 193 3 38 6 42 9 42 36 0 19 -5 29 -15 29 -8 0 -15 8 -15 19 0 10 -9 21
-21 24 -20 5 -20 11 -17 172 2 117 7 168 15 173 8 5 15 44 19 95 5 63 11 87
20 87 11 0 14 20 14 85 0 69 3 86 17 94 14 7 19 26 21 90 3 61 8 81 18 81 11
0 14 17 14 70 0 55 3 71 17 79 14 7 19 26 21 90 3 61 8 81 18 81 10 0 14 13
14 44 0 63 11 106 26 106 11 0 14 17 14 70 0 53 3 70 14 70 10 0 15 21 18 81
4 62 9 84 21 91 13 7 17 24 17 73 0 51 3 65 15 65 8 0 15 9 15 20 0 18 -7 20
-54 20 -38 0 -60 -5 -71 -17 -13 -12 -40 -18 -101 -21 -62 -3 -84 -8 -84 -18
0 -10 -15 -14 -55 -14 -42 0 -55 -3 -55 -15 0 -8 -6 -15 -14 -15 -9 0 -16 -19
-20 -60 -5 -43 -11 -60 -21 -60 -12 0 -15 -16 -15 -70 0 -56 -3 -70 -15 -70
-10 0 -15 -10 -15 -32 0 -69 -13 -138 -25 -138 -8 0 -14 -22 -17 -66 -2 -39
-9 -69 -17 -73 -8 -5 -15 -36 -18 -75 -4 -46 -10 -66 -19 -66 -11 0 -14 -17
-14 -70 0 -54 -4 -71 -17 -78 -12 -7 -18 -27 -21 -76 -3 -48 -8 -66 -18 -66
-11 0 -14 -16 -14 -65 0 -49 -4 -67 -15 -71 -8 -3 -17 -21 -21 -40 -3 -19 -12
-34 -20 -34 -8 0 -14 -9 -14 -20 0 -11 -6 -20 -14 -20 -8 0 -17 -14 -21 -30
-4 -17 -13 -30 -21 -30 -8 0 -14 -9 -14 -20 0 -13 -7 -20 -20 -20 -13 0 -20
-7 -20 -20 0 -13 -7 -20 -20 -20 -11 0 -20 -7 -20 -15 0 -10 -10 -15 -29 -15
-20 0 -30 -6 -34 -20 -4 -15 -14 -20 -41 -20 -25 0 -36 -4 -36 -15 0 -11 -12
-15 -50 -15 -38 0 -50 4 -50 15 0 10 -11 15 -35 15 -28 0 -35 4 -35 20 0 14
-7 20 -21 20 -20 0 -21 4 -17 100 2 76 7 103 18 110 11 7 16 32 19 95 2 61 7
85 16 85 9 0 14 23 17 81 2 64 7 83 21 90 14 8 17 25 17 94 0 65 3 85 14 85 9
0 15 20 18 71 4 44 11 74 19 79 8 5 15 35 17 74 3 48 8 66 18 66 10 0 14 12
14 39 0 59 11 101 26 101 11 0 14 17 14 70 0 53 3 70 14 70 10 0 16 20 21 70
5 50 11 70 21 70 9 0 14 12 14 35 l0 35 -300 0 c-249 0 -300 -2 -300 -14 0 -7
9 -16 20 -19 11 -3 20 -12 20 -21 0 -9 7 -16 15 -16 10 0 15 -11 15 -35 0 -23
5 -35 14 -35 21 0 29 -67 21 -185 -6 -79 -11 -105 -21 -105 -11 0 -14 -22 -14
-105 0 -87 -3 -105 -15 -105 -11 0 -15 -11 -15 -39 0 -59 -11 -101 -26 -101
-11 0 -14 -17 -14 -70 0 -53 -3 -70 -14 -70 -10 0 -16 -20 -21 -70 -5 -50 -11
-70 -21 -70 -10 0 -14 -15 -14 -55 0 -42 -4 -55 -15 -55 -10 0 -16 -16 -21
-50 -4 -32 -11 -50 -20 -50 -8 0 -14 -9 -14 -20 0 -11 -7 -20 -15 -20 -8 0
-17 -14 -21 -35 -3 -20 -12 -35 -20 -35 -8 0 -14 -9 -14 -20 0 -11 -7 -20 -15
-20 -8 0 -15 -7 -15 -15 0 -8 -9 -15 -20 -15 -13 0 -20 -7 -20 -20 0 -13 -7
-20 -20 -20 -11 0 -20 -7 -20 -15 0 -8 -6 -15 -14 -15 -7 0 -16 -9 -19 -20 -4
-15 -14 -20 -36 -20 -21 0 -31 -5 -31 -15 0 -11 -11 -15 -36 -15 -27 0 -37 -5
-41 -20 -5 -18 -14 -20 -74 -20 -55 0 -69 -3 -69 -15 0 -13 -28 -15 -190 -15
-162 0 -190 2 -190 15 0 11 -11 15 -40 15 -28 0 -40 4 -40 15 0 8 -14 17 -35
21 -20 3 -35 12 -35 20 0 8 -6 14 -14 14 -8 0 -17 15 -20 35 -4 21 -13 35 -21
35 -10 0 -15 11 -15 35 0 23 -5 35 -14 35 -20 0 -35 170 -20 227 6 21 11 22
195 25 155 2 191 6 199 18 7 11 32 16 95 19 64 2 85 6 85 17 0 10 13 14 43 14
56 0 87 9 87 26 0 9 12 14 35 14 23 0 35 5 35 14 0 8 15 17 34 20 19 4 37 13
40 21 3 9 18 15 36 15 21 0 30 5 30 16 0 9 9 18 20 21 11 3 20 12 20 19 0 8 9
14 20 14 13 0 20 7 20 20 0 11 7 20 15 20 8 0 15 7 15 15 0 8 7 15 15 15 8 0
17 14 21 35 3 20 12 35 20 35 9 0 14 12 14 35 0 23 5 35 14 35 15 0 26 43 26
106 0 32 4 44 15 44 12 0 15 16 15 85 0 69 -3 85 -15 85 -12 0 -15 13 -15 55
0 41 -4 55 -15 55 -8 0 -17 14 -21 35 -3 20 -12 35 -20 35 -9 0 -14 11 -14 31
0 22 -5 32 -20 36 -11 3 -20 12 -20 19 0 8 -6 14 -14 14 -7 0 -16 9 -19 20 -3
11 -12 20 -21 20 -9 0 -16 6 -16 14 0 8 -15 17 -35 20 -21 4 -35 13 -35 21 0
10 -11 15 -35 15 -24 0 -35 5 -35 15 0 13 -28 15 -195 15 -167 0 -195 -2 -195
-15z m140 -390 c0 -12 13 -15 55 -15 40 0 55 -4 55 -14 0 -8 15 -17 35 -20 31
-6 35 -11 35 -36 0 -20 5 -30 15 -30 12 0 15 -15 15 -75 0 -60 -3 -75 -15 -75
-10 0 -15 -11 -15 -35 0 -23 -5 -35 -14 -35 -7 0 -16 -9 -19 -20 -3 -11 -12
-20 -21 -20 -9 0 -16 -7 -16 -15 0 -8 -9 -15 -20 -15 -11 0 -20 -6 -20 -14 0
-8 -13 -17 -30 -21 -16 -4 -30 -13 -30 -21 0 -9 -11 -14 -35 -14 -23 0 -35 -5
-35 -14 0 -14 -42 -26 -91 -26 -19 0 -29 -5 -29 -15 0 -13 -24 -15 -155 -15
-133 0 -155 2 -155 15 0 9 -7 18 -15 21 -18 7 -20 31 -4 36 6 2 14 27 17 56 3
35 9 52 18 52 9 0 14 12 14 35 0 28 4 35 20 35 16 0 20 7 20 35 0 24 5 35 15
35 8 0 15 6 15 13 0 7 9 20 20 30 11 9 20 26 20 37 0 11 7 20 15 20 9 0 18 6
21 14 3 8 19 18 35 21 16 4 29 13 29 22 0 8 9 17 20 20 11 3 20 12 20 19 0 11
18 14 75 14 60 0 75 3 75 15 0 10 10 15 30 15 20 0 30 -5 30 -15z"/>
<path d="M3520 3350 c0 -13 7 -20 20 -20 16 0 20 -7 20 -30 0 -20 5 -30 15
-30 8 0 15 -9 15 -20 0 -11 7 -20 15 -20 8 0 17 -14 21 -35 3 -19 12 -35 19
-35 7 0 16 -16 19 -35 4 -22 13 -35 22 -35 13 0 15 -23 12 -170 -2 -132 -6
-173 -17 -179 -8 -6 -15 -35 -19 -80 -3 -48 -9 -71 -17 -71 -9 0 -14 -24 -17
-81 -2 -64 -7 -83 -21 -90 -14 -8 -17 -24 -17 -79 0 -56 -3 -70 -15 -70 -12 0
-15 -14 -15 -62 0 -77 -8 -108 -26 -108 -11 0 -14 -18 -14 -75 0 -60 -3 -75
-15 -75 -10 0 -15 -10 -15 -32 0 -72 -13 -138 -26 -138 -11 0 -14 -20 -14 -85
0 -66 -3 -85 -14 -85 -10 0 -16 -21 -21 -75 -5 -55 -11 -75 -21 -75 -27 0 -13
-28 17 -34 41 -8 427 -8 468 0 34 7 43 34 11 34 -16 0 -20 7 -20 35 0 24 -5
35 -15 35 -12 0 -15 18 -15 105 0 87 3 105 15 105 11 0 15 12 15 44 0 63 11
106 26 106 11 0 14 17 14 70 0 56 3 70 15 70 9 0 15 9 15 24 0 45 13 86 26 86
11 0 14 17 14 65 0 51 3 65 15 65 9 0 15 9 15 24 0 45 13 86 26 86 10 0 14 14
14 50 0 36 4 50 14 50 9 0 17 15 21 40 4 25 12 40 21 40 9 0 14 11 14 30 0 21
5 30 16 30 9 0 18 9 21 20 3 11 11 20 18 20 7 0 16 16 19 35 4 21 13 35 21 35
8 0 15 9 15 20 0 11 7 20 15 20 8 0 15 7 15 15 0 8 9 15 20 15 13 0 20 7 20
20 0 13 7 20 20 20 11 0 20 6 20 14 0 8 14 17 30 21 17 4 30 13 30 21 0 8 9
14 20 14 11 0 20 6 20 14 0 19 54 28 122 20 39 -4 58 -11 58 -20 0 -9 12 -14
35 -14 28 0 35 4 35 20 0 11 7 20 15 20 10 0 15 10 15 28 0 42 11 72 26 72 9
0 14 12 14 35 0 24 5 35 15 35 11 0 15 11 15 40 0 28 6 45 20 57 12 11 20 30
20 50 0 23 5 33 15 33 10 0 15 11 15 35 l0 35 -120 0 c-99 0 -121 -3 -128 -16
-5 -10 -28 -18 -55 -21 -31 -4 -47 -10 -47 -19 0 -9 -12 -14 -35 -14 -28 0
-35 -4 -35 -20 0 -13 -7 -20 -20 -20 -11 0 -20 -7 -20 -15 0 -8 -7 -15 -15
-15 -8 0 -15 -6 -15 -14 0 -7 -9 -16 -20 -19 -11 -3 -20 -12 -20 -20 0 -9 -13
-18 -30 -22 -16 -4 -30 -13 -30 -21 0 -8 -9 -14 -20 -14 -13 0 -20 -7 -20 -20
0 -11 -6 -20 -14 -20 -8 0 -16 -7 -20 -15 -3 -9 -19 -15 -41 -15 l-35 0 0 90
c0 73 -3 90 -15 90 -10 0 -15 10 -15 30 0 18 -6 33 -15 36 -8 3 -17 21 -21 40
l-6 34 -264 0 c-257 0 -264 -1 -264 -20z"/>
<path d="M10060 1865 c0 -11 -12 -15 -50 -15 -39 0 -50 -3 -50 -16 0 -9 -9
-18 -20 -21 -11 -3 -20 -12 -20 -19 0 -8 -9 -14 -20 -14 -16 0 -20 -7 -20 -35
0 -24 -5 -35 -15 -35 -12 0 -15 -17 -15 -90 0 -70 3 -90 14 -90 8 0 17 -15 20
-35 4 -21 13 -35 21 -35 8 0 15 -6 15 -14 0 -8 15 -17 35 -20 21 -4 35 -13 35
-21 0 -12 20 -15 105 -15 98 0 105 1 105 20 0 13 7 20 20 20 11 0 20 7 20 15
0 8 7 15 15 15 8 0 15 7 15 15 0 9 7 18 15 21 8 3 17 21 21 40 3 19 12 34 20
34 10 0 14 14 14 50 0 36 -4 50 -14 50 -9 0 -15 16 -19 47 -3 27 -11 50 -21
55 -9 5 -16 16 -16 23 0 8 -9 15 -20 15 -11 0 -20 6 -20 14 0 15 -30 26 -72
26 -18 0 -28 5 -28 15 0 10 -11 15 -35 15 -24 0 -35 -5 -35 -15z"/>
<path d="M6630 755 l0 -355 35 0 35 0 0 355 0 355 -35 0 -35 0 0 -355z"/>
<path d="M8050 1035 c0 -24 5 -35 15 -35 8 0 15 -7 15 -15 0 -10 11 -15 35
-15 l35 0 0 50 0 50 -50 0 -50 0 0 -35z"/>
<path d="M9110 1035 c0 -24 5 -35 15 -35 8 0 15 -7 15 -15 0 -8 9 -15 20 -15
11 0 20 7 20 15 0 8 7 15 15 15 10 0 15 11 15 35 l0 35 -50 0 -50 0 0 -35z"/>
<path d="M8790 951 c0 -48 -1 -49 -35 -55 -30 -6 -35 -11 -35 -36 0 -25 5 -30
35 -36 l35 -6 0 -189 c0 -161 2 -189 15 -189 8 0 15 -9 15 -20 0 -18 7 -20 85
-20 l85 0 0 35 0 35 -50 0 c-43 0 -50 3 -50 20 0 11 -7 20 -15 20 -13 0 -15
24 -15 154 0 175 -5 166 93 166 46 0 47 1 47 30 0 29 -1 30 -47 30 -85 0 -93
6 -93 61 l0 49 -35 0 -35 0 0 -49z"/>
<path d="M7028 893 c-24 -3 -38 -9 -38 -19 0 -8 -8 -14 -17 -14 -20 0 -63 -41
-63 -59 0 -6 -6 -11 -14 -11 -9 0 -15 -17 -18 -52 -3 -29 -11 -54 -17 -56 -14
-5 -14 -69 0 -74 6 -2 13 -25 16 -51 4 -31 10 -47 19 -47 8 0 14 -9 14 -20 0
-13 7 -20 20 -20 13 0 20 -7 20 -20 0 -13 7 -20 20 -20 11 0 20 -7 20 -15 0
-12 18 -15 105 -15 84 0 105 3 105 14 0 8 14 17 30 21 17 4 30 13 30 21 0 8 9
14 20 14 16 0 20 7 20 35 0 24 5 35 14 35 10 0 16 20 21 74 8 83 1 132 -21
140 -8 3 -14 19 -14 36 0 20 -5 30 -15 30 -8 0 -15 7 -15 16 0 9 -9 18 -20 21
-11 3 -20 12 -20 19 0 10 -12 14 -39 14 -21 0 -58 2 -82 4 -24 2 -61 2 -81 -1z
m139 -69 c14 -4 24 -17 28 -35 4 -16 12 -29 19 -29 9 0 15 -21 19 -59 8 -78
-2 -161 -19 -161 -8 0 -14 -9 -14 -20 0 -11 -7 -20 -15 -20 -8 0 -15 -7 -15
-15 0 -12 -15 -15 -75 -15 -57 0 -75 3 -75 14 0 7 -9 16 -20 19 -11 3 -20 12
-20 21 0 9 -7 16 -15 16 -12 0 -15 18 -15 105 0 87 3 105 15 105 8 0 15 9 15
20 0 13 7 20 20 20 11 0 20 6 20 14 0 8 8 17 18 19 26 7 104 7 129 1z"/>
<path d="M7588 893 c-25 -3 -38 -9 -38 -19 0 -8 -7 -14 -15 -14 -8 0 -15 -7
-15 -16 0 -9 -9 -18 -20 -21 -11 -3 -20 -13 -20 -23 0 -10 -7 -25 -15 -34 -32
-32 -31 -226 1 -226 9 0 14 -11 14 -35 0 -28 4 -35 20 -35 11 0 20 -6 20 -14
0 -8 14 -17 30 -21 17 -4 30 -13 30 -21 0 -11 16 -14 69 -14 60 0 69 2 74 20
4 15 14 20 41 20 l36 0 0 -55 c0 -48 -2 -55 -20 -55 -13 0 -20 -7 -20 -20 0
-11 -7 -20 -15 -20 -8 0 -15 -7 -15 -15 0 -12 -17 -15 -90 -15 -73 0 -90 3
-90 15 0 10 -11 15 -35 15 -33 0 -35 -2 -35 -35 0 -33 2 -35 35 -35 24 0 35
-5 35 -15 0 -12 17 -15 90 -15 73 0 90 3 90 15 0 10 11 15 35 15 28 0 35 4 35
20 0 11 7 20 15 20 8 0 15 6 15 14 0 7 9 16 20 19 17 4 20 14 20 56 0 39 4 51
15 51 13 0 15 34 15 245 l0 245 -35 0 c-24 0 -35 -5 -35 -15 0 -10 -11 -15
-35 -15 -23 0 -35 5 -35 14 0 12 -79 29 -120 24 -8 -1 -32 -3 -52 -5z m150
-69 c12 -4 22 -13 22 -20 0 -8 6 -14 14 -14 20 0 26 -32 26 -147 0 -85 -3
-103 -15 -103 -8 0 -15 -7 -15 -16 0 -9 -9 -18 -20 -21 -11 -3 -20 -12 -20
-19 0 -10 -15 -14 -55 -14 -42 0 -55 3 -55 15 0 8 -9 15 -20 15 -13 0 -20 7
-20 20 0 11 -7 20 -15 20 -10 0 -15 11 -15 35 0 24 -5 35 -15 35 -10 0 -15 11
-15 35 0 24 5 35 15 35 12 0 15 13 15 55 0 48 2 55 20 55 11 0 20 6 20 14 0 8
8 17 18 19 26 7 104 7 130 1z"/>
<path d="M8423 893 c-38 -3 -53 -8 -53 -19 0 -7 -8 -14 -19 -14 -14 0 -19 -10
-23 -45 -8 -66 2 -135 18 -135 8 0 14 -6 14 -14 0 -8 15 -17 34 -20 19 -4 37
-13 40 -21 3 -9 18 -15 35 -15 20 0 30 -6 34 -20 3 -11 12 -20 21 -20 12 0 16
-10 16 -35 0 -24 -5 -35 -15 -35 -8 0 -15 -7 -15 -15 0 -12 -18 -15 -105 -15
-98 0 -105 -1 -105 -20 0 -11 7 -20 15 -20 8 0 15 -7 15 -15 0 -12 18 -15 105
-15 87 0 105 3 105 15 0 8 7 15 16 15 9 0 18 9 21 20 3 11 12 20 19 20 11 0
14 17 14 70 0 53 -3 70 -14 70 -7 0 -16 9 -19 20 -3 11 -12 20 -21 20 -9 0
-16 7 -16 15 0 10 -11 15 -35 15 -24 0 -35 5 -35 15 0 8 -14 17 -35 21 -34 6
-35 7 -35 54 0 46 2 49 31 55 16 4 56 5 87 3 l57 -3 3 33 c3 30 1 32 -30 32
-18 0 -42 2 -53 3 -11 2 -44 2 -72 0z"/>
<path d="M9533 893 c-29 -3 -43 -9 -43 -19 0 -9 -10 -14 -29 -14 -20 0 -30 -6
-34 -20 -3 -11 -12 -20 -21 -20 -11 0 -16 -9 -16 -30 0 -17 -7 -33 -17 -39
-26 -14 -33 -198 -9 -207 8 -3 18 -21 22 -40 3 -19 12 -34 20 -34 8 0 14 -6
14 -14 0 -8 15 -17 35 -20 21 -4 35 -13 35 -21 0 -12 20 -15 110 -15 103 0
110 1 110 20 0 11 7 20 15 20 8 0 15 7 15 15 0 12 -18 15 -105 15 -87 0 -105
3 -105 15 0 8 -9 15 -20 15 -13 0 -20 7 -20 20 0 11 -6 20 -14 20 -8 0 -17 15
-20 35 -4 19 -11 35 -16 35 -6 0 -10 16 -10 35 0 19 4 35 10 35 5 0 12 22 16
49 5 37 11 51 25 54 11 3 19 12 19 20 0 20 45 30 128 27 110 -4 112 -4 112 30
0 28 -2 30 -39 30 -21 0 -58 2 -82 4 -24 2 -63 2 -86 -1z"/>
<path d="M9958 893 c-25 -3 -38 -9 -38 -19 0 -8 -9 -14 -20 -14 -11 0 -20 -7
-20 -15 0 -8 -7 -15 -15 -15 -12 0 -15 -14 -15 -69 0 -60 2 -69 20 -74 11 -3
20 -12 20 -21 0 -11 9 -16 30 -16 19 0 30 -5 30 -14 0 -9 15 -17 40 -21 25 -4
40 -12 40 -21 0 -8 7 -14 15 -14 12 0 15 -13 15 -55 l0 -55 -105 0 -105 0 0
-35 0 -35 105 0 c85 0 105 3 105 15 0 8 14 17 35 21 32 6 35 9 35 40 0 24 5
34 15 34 10 0 15 10 15 30 0 20 -5 30 -15 30 -10 0 -15 11 -15 35 0 31 -3 35
-35 41 -20 3 -35 12 -35 20 0 9 -12 14 -35 14 -28 0 -35 4 -35 20 0 13 -7 20
-20 20 -11 0 -20 7 -20 15 0 8 -7 15 -15 15 -8 0 -15 9 -15 20 0 11 6 20 14
20 7 0 16 10 19 21 6 21 10 22 91 15 l86 -7 0 34 c0 34 -1 34 -52 41 -29 3
-60 5 -68 4 -8 -1 -32 -3 -52 -5z"/>
<path d="M8080 645 l0 -245 35 0 35 0 0 245 0 245 -35 0 -35 0 0 -245z"/>
<path d="M9110 645 l0 -245 50 0 50 0 0 245 0 245 -50 0 -50 0 0 -245z"/>
</g>
</svg>
